<svg width="203" height="45" viewBox="0 0 203 45" fill="none" xmlns="http://www.w3.org/2000/svg">
<path d="M198.042 39.0198C199.662 39.0198 201.462 38.4198 202.602 37.7598L201.882 43.2198C200.382 44.0598 198.282 44.6598 195.822 44.6598C191.442 44.6598 188.742 41.9598 188.742 36.3198V18.1398H184.242V12.4998H188.742V3.49977L194.802 0.259766V12.4998H202.602V18.1398H194.802V35.2398C194.802 38.1798 195.762 39.0198 198.042 39.0198Z" fill="white"/>
<path d="M168.436 11.8398C176.476 11.8398 182.476 18.2598 182.476 28.0998C182.476 38.5398 176.356 44.6598 168.256 44.6598C160.336 44.6598 154.396 38.1198 154.396 28.2798C154.396 17.9598 160.516 11.8398 168.436 11.8398ZM168.496 38.7798C173.176 38.7798 176.236 34.0398 176.236 28.2798C176.236 21.8598 173.176 17.7198 168.196 17.7198C163.516 17.7198 160.636 21.8598 160.636 28.0998C160.636 34.9998 163.816 38.7798 168.496 38.7798Z" fill="white"/>
<path d="M139.017 11.8398C145.797 11.8398 151.137 16.7598 151.137 28.7598C151.137 39.5598 145.257 44.6598 138.717 44.6598C135.537 44.6598 132.537 42.9798 130.797 41.0598V43.9998H124.677V3.43976L130.797 0.259766V15.4998C133.077 13.3998 135.717 11.8398 139.017 11.8398ZM138.117 38.9598C142.557 38.9598 144.957 35.5998 144.957 28.9398C144.957 21.0198 142.437 17.5398 137.877 17.5398C134.937 17.5398 132.357 19.5198 130.737 21.5598V34.8198C132.117 36.6798 134.997 38.9598 138.117 38.9598Z" fill="white"/>
<path d="M114.694 36.7398C116.194 36.7398 117.334 36.0798 119.374 34.3398L118.174 42.7398C116.794 43.8198 114.334 44.6598 111.754 44.6598C106.654 44.6598 103.354 40.6998 103.354 35.1798V20.2998H98.0742V12.4998H103.354V4.39977L111.634 0.259766V12.4998H119.194V20.2998H111.634V32.9598C111.634 35.9598 112.714 36.7398 114.694 36.7398Z" fill="white"/>
<path d="M81.8344 37.6398C84.5344 37.6398 86.6944 36.2598 87.5944 34.7598V30.7998C86.1544 29.8998 84.7744 29.4798 81.8344 29.4798C78.7144 29.4798 77.0344 30.9198 77.0344 33.4398C77.0344 35.6598 78.2944 37.6398 81.8344 37.6398ZM95.8744 22.8798V43.9998H87.5944V41.8998C86.0944 43.4598 83.4544 44.6598 80.5144 44.6598C74.6344 44.6598 68.7544 41.0598 68.7544 33.4398C68.7544 26.4798 74.3944 22.9998 81.5344 22.9998C84.4144 22.9998 86.2744 23.5998 87.5944 24.2598V22.6998C87.5944 20.4798 86.0944 18.6798 83.0944 18.6798C79.3144 18.6798 77.3344 19.2198 74.4544 20.7798L71.2744 15.0198C74.9344 12.9198 77.9944 11.8398 83.0944 11.8398C90.7144 11.8398 95.8744 15.7998 95.8744 22.8798Z" fill="white"/>
<path d="M65.5153 26.2398V43.9998H57.2353V26.9598C57.2353 21.3198 55.3153 19.6398 51.8953 19.6398C48.4753 19.6398 46.4953 21.3198 46.4953 26.7798V43.9998H38.2153V4.39977L46.4953 0.259766V14.5998C47.9353 13.0998 50.5753 11.8398 53.8753 11.8398C61.9153 11.8398 65.5153 17.3598 65.5153 26.2398Z" fill="white"/>
<path d="M18.8402 1.33984C26.7602 1.33984 31.5602 5.17985 34.2002 10.6398L26.4002 14.2398C24.9002 11.3598 22.5002 9.67984 18.7202 9.67984C12.4202 9.67984 8.82018 15.1998 8.82018 22.9998C8.82018 30.5598 12.4802 36.3198 18.7802 36.3198C22.5602 36.3198 24.7802 34.6998 27.0002 30.9798L34.0802 35.1798C31.2002 41.1198 26.1602 44.6598 18.5402 44.6598C7.56018 44.6598 0.180176 36.2598 0.180176 22.9998C0.180176 10.2198 7.86018 1.33984 18.8402 1.33984Z" fill="white"/>
</svg>
