<svg width="270" height="60" viewBox="0 0 270 60" fill="none" xmlns="http://www.w3.org/2000/svg">
<path d="M263.816 51.68C265.976 51.68 268.376 50.88 269.896 50L268.936 57.28C266.936 58.4 264.136 59.2 260.856 59.2C255.016 59.2 251.416 55.6 251.416 48.08V23.84H245.416V16.32H251.416V4.32L259.496 0V16.32H269.896V23.84H259.496V46.64C259.496 50.56 260.776 51.68 263.816 51.68Z" fill="#032855"/>
<path d="M224.341 15.4395C235.061 15.4395 243.061 23.9995 243.061 37.1195C243.061 51.0395 234.901 59.1995 224.101 59.1995C213.541 59.1995 205.621 50.4795 205.621 37.3595C205.621 23.5995 213.781 15.4395 224.341 15.4395ZM224.421 51.3595C230.661 51.3595 234.741 45.0395 234.741 37.3595C234.741 28.7995 230.661 23.2795 224.021 23.2795C217.781 23.2795 213.941 28.7995 213.941 37.1195C213.941 46.3195 218.181 51.3595 224.421 51.3595Z" fill="#032855"/>
<path d="M185.116 15.44C194.156 15.44 201.276 22 201.276 38C201.276 52.4 193.436 59.2 184.716 59.2C180.476 59.2 176.476 56.96 174.156 54.4V58.32H165.996V4.24L174.156 0V20.32C177.196 17.52 180.716 15.44 185.116 15.44ZM183.916 51.6C189.836 51.6 193.036 47.12 193.036 38.24C193.036 27.68 189.676 23.04 183.596 23.04C179.676 23.04 176.236 25.68 174.076 28.4V46.08C175.916 48.56 179.756 51.6 183.916 51.6Z" fill="#032855"/>
<path d="M152.685 48.64C154.685 48.64 156.205 47.76 158.925 45.44L157.325 56.64C155.485 58.08 152.205 59.2 148.765 59.2C141.965 59.2 137.565 53.92 137.565 46.56V26.72H130.525V16.32H137.565V5.52L148.605 0V16.32H158.685V26.72H148.605V43.6C148.605 47.6 150.045 48.64 152.685 48.64Z" fill="#032855"/>
<path d="M108.872 49.8395C112.472 49.8395 115.352 47.9995 116.552 45.9995V40.7195C114.632 39.5195 112.792 38.9595 108.872 38.9595C104.712 38.9595 102.472 40.8795 102.472 44.2395C102.472 47.1995 104.152 49.8395 108.872 49.8395ZM127.592 30.1595V58.3195H116.552V55.5195C114.552 57.5994 111.032 59.1995 107.112 59.1995C99.2716 59.1995 91.4316 54.3995 91.4316 44.2395C91.4316 34.9595 98.9516 30.3195 108.472 30.3195C112.312 30.3195 114.792 31.1195 116.552 31.9995V29.9195C116.552 26.9595 114.552 24.5595 110.552 24.5595C105.512 24.5595 102.872 25.2795 99.0316 27.3595L94.7916 19.6795C99.6716 16.8795 103.752 15.4395 110.552 15.4395C120.712 15.4395 127.592 20.7194 127.592 30.1595Z" fill="#032855"/>
<path d="M87.1129 34.64V58.32H76.0729V35.6C76.0729 28.08 73.5129 25.84 68.9529 25.84C64.3929 25.84 61.7529 28.08 61.7529 35.36V58.32H50.7129V5.52L61.7529 0V19.12C63.6729 17.12 67.1929 15.44 71.5929 15.44C82.3129 15.44 87.1129 22.8 87.1129 34.64Z" fill="#032855"/>
<path d="M24.88 1.43945C35.44 1.43945 41.84 6.55945 45.36 13.8395L34.96 18.6395C32.96 14.7995 29.76 12.5595 24.72 12.5595C16.32 12.5595 11.52 19.9195 11.52 30.3195C11.52 40.3995 16.4 48.0795 24.8 48.0795C29.84 48.0795 32.8 45.9195 35.76 40.9595L45.2 46.5595C41.36 54.4795 34.64 59.1995 24.48 59.1995C9.84 59.1995 0 47.9995 0 30.3195C0 13.2795 10.24 1.43945 24.88 1.43945Z" fill="#032855"/>
</svg>
