<svg width="603" height="100" viewBox="0 0 603 100" fill="none" xmlns="http://www.w3.org/2000/svg">
<path d="M85.5569 3.915C112.546 3.915 132.518 16.605 132.518 51.165C132.518 84.375 108.498 98.415 84.2074 98.415H56.0039V3.915H85.5569ZM84.2074 80.055C104.044 80.055 113.086 68.445 113.086 51.165C113.086 31.86 104.854 22.275 84.8821 22.275H74.8962V80.055H84.2074ZM166.949 84.105C173.022 84.105 177.88 81 179.904 77.625V68.715C176.665 66.69 173.561 65.745 166.949 65.745C159.932 65.745 156.153 68.985 156.153 74.655C156.153 79.65 158.987 84.105 166.949 84.105ZM198.526 50.895V98.415H179.904V93.69C176.53 97.2 170.593 99.9 163.98 99.9C150.755 99.9 137.531 91.8 137.531 74.655C137.531 58.995 150.216 51.165 166.274 51.165C172.752 51.165 176.935 52.515 179.904 54V50.49C179.904 45.495 176.53 41.445 169.783 41.445C161.281 41.445 156.828 42.66 150.351 46.17L143.198 33.21C151.43 28.485 158.312 26.055 169.783 26.055C186.921 26.055 198.526 34.965 198.526 50.895ZM241.528 54.81C254.213 58.995 265.143 63.585 265.143 77.76C265.143 94.095 252.189 99.9 236.265 99.9C225.065 99.9 214.134 96.66 206.577 91.665L212.785 77.49C220.342 81.675 228.303 83.97 237.345 83.97C244.632 83.97 246.791 82.215 246.791 78.57C246.791 75.33 244.227 73.71 236.4 71.415C219.397 66.285 208.467 62.1 208.467 47.115C208.467 32.4 220.207 26.055 236.805 26.055C245.711 26.055 255.427 28.755 262.984 32.94L257.047 47.655C250.03 43.875 242.338 41.985 236.4 41.985C228.843 41.985 226.819 43.47 226.819 46.575C226.819 49.545 228.978 50.76 241.528 54.81ZM336.275 58.455V98.415H317.652V60.075C317.652 47.385 313.334 43.605 305.642 43.605C297.95 43.605 293.497 47.385 293.497 59.67V98.415H274.875V9.315L293.497 0V32.265C296.736 28.89 302.673 26.055 310.095 26.055C328.178 26.055 336.275 38.475 336.275 58.455ZM380.4 26.055C395.649 26.055 407.659 37.125 407.659 64.125C407.659 88.425 394.434 99.9 379.725 99.9C372.572 99.9 365.826 96.12 361.913 91.8V98.415H348.148V7.155L361.913 0V34.29C367.04 29.565 372.978 26.055 380.4 26.055ZM378.376 87.075C388.362 87.075 393.76 79.515 393.76 64.53C393.76 46.71 388.092 38.88 377.836 38.88C371.224 38.88 365.421 43.335 361.778 47.925V77.76C364.881 81.945 371.359 87.075 378.376 87.075ZM426.054 0.405C430.912 0.405 434.96 4.455 434.96 9.45C434.96 14.31 430.912 18.36 426.054 18.36C421.061 18.36 417.011 14.31 417.011 9.45C417.011 4.455 421.061 0.405 426.054 0.405ZM432.936 27.54V98.415H419.036V27.54H432.936ZM477.419 26.055C483.086 26.055 486.595 27.135 489.429 29.025L485.785 42.255C482.817 40.635 479.713 39.69 475.125 39.69C466.353 39.69 461.225 45.9 461.225 57.915V98.415H447.326V27.54H461.225V34.29C464.464 29.565 470.402 26.055 477.419 26.055ZM523.535 87.21C527.178 87.21 531.226 85.86 533.79 84.375L532.171 96.66C528.797 98.55 524.074 99.9 518.542 99.9C508.691 99.9 502.618 93.825 502.618 81.135V40.23H492.497V27.54H502.618V7.29L516.248 0V27.54H533.79V40.23H516.248V78.705C516.248 85.32 518.407 87.21 523.535 87.21ZM602.926 57.78V98.415H589.027V58.32C589.027 44.01 583.629 38.88 574.453 38.88C565.141 38.88 559.879 45.495 559.879 56.97V98.415H545.979V7.29L559.879 0V34.29C563.387 29.16 570.404 26.055 577.691 26.055C594.155 26.055 602.926 36.855 602.926 57.78Z" fill="#032855"/>
<path d="M32.0494 66.3525H0V98.415H32.0494V66.3525Z" fill="#F47623"/>
</svg>
