<svg width="364" height="96" viewBox="0 0 364 96" fill="none" xmlns="http://www.w3.org/2000/svg">
<path d="M50.72 21C66.72 21 78.56 28.52 78.56 49C78.56 68.68 64.32 77 49.92 77H33.2V21H50.72ZM49.92 66.12C61.68 66.12 67.04 59.24 67.04 49C67.04 37.56 62.16 31.88 50.32 31.88H44.4V66.12H49.92ZM98.9719 68.52C102.572 68.52 105.452 66.68 106.652 64.68V59.4C104.732 58.2 102.892 57.64 98.9719 57.64C94.8119 57.64 92.5719 59.56 92.5719 62.92C92.5719 65.88 94.2519 68.52 98.9719 68.52ZM117.692 48.84V77H106.652V74.2C104.652 76.28 101.132 77.88 97.2119 77.88C89.3719 77.88 81.5319 73.08 81.5319 62.92C81.5319 53.64 89.0519 49 98.5719 49C102.412 49 104.892 49.8 106.652 50.68V48.6C106.652 45.64 104.652 43.24 100.652 43.24C95.6119 43.24 92.9719 43.96 89.1319 46.04L84.8919 38.36C89.7719 35.56 93.8519 34.12 100.652 34.12C110.812 34.12 117.692 39.4 117.692 48.84ZM143.185 51.16C150.705 53.64 157.185 56.36 157.185 64.76C157.185 74.44 149.505 77.88 140.065 77.88C133.425 77.88 126.945 75.96 122.465 73L126.145 64.6C130.625 67.08 135.345 68.44 140.705 68.44C145.025 68.44 146.305 67.4 146.305 65.24C146.305 63.32 144.785 62.36 140.145 61C130.065 57.96 123.585 55.48 123.585 46.6C123.585 37.88 130.545 34.12 140.385 34.12C145.665 34.12 151.425 35.72 155.905 38.2L152.385 46.92C148.225 44.68 143.665 43.56 140.145 43.56C135.665 43.56 134.465 44.44 134.465 46.28C134.465 48.04 135.745 48.76 143.185 51.16ZM199.354 53.32V77H188.314V54.28C188.314 46.76 185.754 44.52 181.194 44.52C176.634 44.52 173.994 46.76 173.994 54.04V77H162.954V24.2L173.994 18.68V37.8C175.914 35.8 179.434 34.12 183.834 34.12C194.554 34.12 199.354 41.48 199.354 53.32ZM225.513 34.12C234.553 34.12 241.673 40.68 241.673 56.68C241.673 71.08 233.833 77.88 225.113 77.88C220.872 77.88 216.873 75.64 214.553 73.08V77H206.393V22.92L214.553 18.68V39C217.593 36.2 221.113 34.12 225.513 34.12ZM224.313 70.28C230.233 70.28 233.433 65.8 233.433 56.92C233.433 46.36 230.073 41.72 223.993 41.72C220.073 41.72 216.633 44.36 214.473 47.08V64.76C216.313 67.24 220.153 70.28 224.313 70.28ZM252.578 18.92C255.458 18.92 257.858 21.32 257.858 24.28C257.858 27.16 255.458 29.56 252.578 29.56C249.618 29.56 247.217 27.16 247.217 24.28C247.217 21.32 249.618 18.92 252.578 18.92ZM256.658 35V77H248.418V35H256.658ZM283.029 34.12C286.389 34.12 288.469 34.76 290.149 35.88L287.989 43.72C286.229 42.76 284.389 42.2 281.669 42.2C276.469 42.2 273.429 45.88 273.429 53V77H265.189V35H273.429V39C275.349 36.2 278.869 34.12 283.029 34.12ZM310.368 70.36C312.528 70.36 314.928 69.56 316.448 68.68L315.488 75.96C313.488 77.08 310.688 77.88 307.408 77.88C301.568 77.88 297.968 74.28 297.968 66.76V42.52H291.968V35H297.968V23L306.048 18.68V35H316.448V42.52H306.048V65.32C306.048 69.24 307.328 70.36 310.368 70.36ZM357.434 52.92V77H349.194V53.24C349.194 44.76 345.994 41.72 340.554 41.72C335.034 41.72 331.914 45.64 331.914 52.44V77H323.674V23L331.914 18.68V39C333.994 35.96 338.154 34.12 342.474 34.12C352.234 34.12 357.434 40.52 357.434 52.92Z" fill="#032855"/>
<rect y="58" width="19" height="19" fill="#F47623"/>
</svg>
